name Run_400 02_newCOP3_v24.mot
datacolumns 19
datarows 193
range 0.01 0.106
DataType=double
version=3
OpenSimVersion=4.3-2021-08-27-4bc7ad9
endheader
time	R_ground_force_vx	R_ground_force_vy	R_ground_force_vz	R_ground_force_px	R_ground_force_py	R_ground_force_pz	L_ground_force_vx	L_ground_force_vy	L_ground_force_vz	L_ground_force_px	L_ground_force_py	L_ground_force_pz	R_ground_torque_x	R_ground_torque_y	R_ground_torque_z	L_ground_torque_x	L_ground_torque_y	L_ground_torque_z
0.01	0	0	0	0	0	0	0	0	0	0	0	0	0	0	0	0	0	0
0.0105	0	0	0	0	0	0	0	0	0	0	0	0	0	0	0	0	0	0
0.011	0	0	0	0	0	0	0	0	0	0	0	0	0	0	0	0	0	0
0.0115	0	0	0	0	0	0	0	0	0	0	0	0	0	0	0	0	0	0
0.012	0	0	0	0	0	0	0	0	0	0	0	0	0	0	0	0	0	0
0.0125	0	0	0	0	0	0	0	0	0	0	0	0	0	0	0	0	0	0
0.013	0	0	0	0	0	0	0	0	0	0	0	0	0	0	0	0	0	0
0.0135	0	0	0	0	0	0	0	0	0	0	0	0	0	0	0	0	0	0
0.014	0	0	0	0	0	0	0	0	0	0	0	0	0	0	0	0	0	0
0.0145	0	0	0	0	0	0	0	0	0	0	0	0	0	0	0	0	0	0
0.015	0	0	0	0	0	0	0	0	0	0	0	0	0	0	0	0	0	0
0.0155	0	0	0	0	0	0	0	0	0	0	0	0	0	0	0	0	0	0
0.016	0	0	0	0	0	0	0	0	0	0	0	0	0	0	0	0	0	0
0.0165	0	0	0	0	0	0	0	0	0	0	0	0	0	0	0	0	0	0
0.017	0	0	0	0	0	0	0	0	0	0	0	0	0	0	0	0	0	0
0.0175	0	0	0	0	0	0	0	0	0	0	0	0	0	0	0	0	0	0
0.018	0	0	0	0	0	0	0	0	0	0	0	0	0	0	0	0	0	0
0.0185	0	0	0	0	0	0	0	0	0	0	0	0	0	0	0	0	0	0
0.019	0	0	0	0	0	0	0	0	0	0	0	0	0	0	0	0	0	0
0.0195	0	0	0	0	0	0	0	0	0	0	0	0	0	0	0	0	0	0
0.02	0	0	0	0	0	0	0	0	0	0	0	0	0	0	0	0	0	0
0.0205	0	0	0	0	0	0	0	0	0	0	0	0	0	0	0	0	0	0
0.021	0	0	0	0	0	0	0	0	0	0	0	0	0	0	0	0	0	0
0.0215	0	0	0	0	0	0	0	0	0	0	0	0	0	0	0	0	0	0
0.022	0	0	0	0	0	0	0	0	0	0	0	0	0	0	0	0	0	0
0.0225	0	0	0	0	0	0	0	0	0	0	0	0	0	0	0	0	0	0
0.023	0	0	0	0	0	0	0	0	0	0	0	0	0	0	0	0	0	0
0.0235	0	0	0	0	0	0	0	0	0	0	0	0	0	0	0	0	0	0
0.024	0	0	0	0	0	0	0	0	0	0	0	0	0	0	0	0	0	0
0.0245	0	0	0	0	0	0	0	0	0	0	0	0	0	0	0	0	0	0
0.025	0	0	0	0	0	0	0	0	0	0	0	0	0	0	0	0	0	0
0.0255	0	0	0	0	0	0	0	0	0	0	0	0	0	0	0	0	0	0
0.026	0	0	0	0	0	0	0	0	0	0	0	0	0	0	0	0	0	0
0.0265	0	0	0	0	0	0	0	0	0	0	0	0	0	0	0	0	0	0
0.027	0	0	0	0	0	0	0	0	0	0	0	0	0	0	0	0	0	0
0.0275	0	0	0	0	0	0	0	0	0	0	0	0	0	0	0	0	0	0
0.028	0	0	0	0	0	0	0	0	0	0	0	0	0	0	0	0	0	0
0.0285	0	0	0	0	0	0	0	0	0	0	0	0	0	0	0	0	0	0
0.029	0	0	0	0	0	0	0	0	0	0	0	0	0	0	0	0	0	0
0.0295	0	0	0	0	0	0	0	0	0	0	0	0	0	0	0	0	0	0
0.03	0	0	0	0	0	0	0	0	0	0	0	0	0	0	0	0	0	0
0.0305	0	0	0	0	0	0	0	0	0	0	0	0	0	0	0	0	0	0
0.031	0	0	0	0	0	0	0	0	0	0	0	0	0	0	0	0	0	0
0.0315	0	0	0	0	0	0	0	0	0	0	0	0	0	0	0	0	0	0
0.032	0	0	0	0	0	0	0	0	0	0	0	0	0	0	0	0	0	0
0.0325	0	0	0	0	0	0	0	0	0	0	0	0	0	0	0	0	0	0
0.033	0	0	0	0	0	0	0	0	0	0	0	0	0	0	0	0	0	0
0.0335	0	0	0	0	0	0	0	0	0	0	0	0	0	0	0	0	0	0
0.034	0	0	0	0	0	0	0	0	0	0	0	0	0	0	0	0	0	0
0.0345	0	0	0	0	0	0	0	0	0	0	0	0	0	0	0	0	0	0
0.035	0	0	0	0	0	0	0	0	0	0	0	0	0	0	0	0	0	0
0.0355	0	0	0	0	0	0	0	0	0	0	0	0	0	0	0	0	0	0
0.036	0	0	0	0	0	0	0	0	0	0	0	0	0	0	0	0	0	0
0.0365	0	0	0	0	0	0	0	0	0	0	0	0	0	0	0	0	0	0
0.037	0	0	0	0	0	0	0	0	0	0	0	0	0	0	0	0	0	0
0.0375	0	0	0	0	0	0	0	0	0	0	0	0	0	0	0	0	0	0
0.038	0	0	0	0	0	0	0	0	0	0	0	0	0	0	0	0	0	0
0.0385	0	0	0	0	0	0	0	0	0	0	0	0	0	0	0	0	0	0
0.039	0	0	0	0	0	0	0	0	0	0	0	0	0	0	0	0	0	0
0.0395	0	0	0	0	0	0	0	0	0	0	0	0	0	0	0	0	0	0
0.04	0	0	0	0	0	0	0	0	0	0	0	0	0	0	0	0	0	0
0.0405	0	0	0	0	0	0	0	0	0	0	0	0	0	0	0	0	0	0
0.041	0	0	0	0	0	0	0	0	0	0	0	0	0	0	0	0	0	0
0.0415	0	0	0	0	0	0	0	0	0	0	0	0	0	0	0	0	0	0
0.042	0	0	0	0	0	0	0	0	0	0	0	0	0	0	0	0	0	0
0.0425	0	0	0	0	0	0	0	0	0	0	0	0	0	0	0	0	0	0
0.043	0	0	0	0	0	0	0	0	0	0	0	0	0	0	0	0	0	0
0.0435	0	0	0	0	0	0	0	0	0	0	0	0	0	0	0	0	0	0
0.044	0	0	0	0	0	0	0	0	0	0	0	0	0	0	0	0	0	0
0.0445	0	0	0	0	0	0	0	0	0	0	0	0	0	0	0	0	0	0
0.045	0	0	0	0	0	0	0	0	0	0	0	0	0	0	0	0	0	0
0.0455	0	0	0	0	0	0	0	0	0	0	0	0	0	0	0	0	0	0
0.046	0	0	0	0	0	0	0	0	0	0	0	0	0	0	0	0	0	0
0.0465	0	0	0	0	0	0	0	0	0	0	0	0	0	0	0	0	0	0
0.047	0	0	0	0	0	0	0	0	0	0	0	0	0	0	0	0	0	0
0.0475	0	0	0	0	0	0	0	0	0	0	0	0	0	0	0	0	0	0
0.048	0	0	0	0	0	0	0	0	0	0	0	0	0	0	0	0	0	0
0.0485	0	0	0	0	0	0	0	0	0	0	0	0	0	0	0	0	0	0
0.049	0	0	0	0	0	0	0	0	0	0	0	0	0	0	0	0	0	0
0.0495	0	0	0	0	0	0	0	0	0	0	0	0	0	0	0	0	0	0
0.05	0	0	0	0	0	0	0	0	0	0	0	0	0	0	0	0	0	0
0.0505	0	0	0	0	0	0	0	0	0	0	0	0	0	0	0	0	0	0
0.051	0	0	0	0	0	0	0	0	0	0	0	0	0	0	0	0	0	0
0.0515	0	0	0	0	0	0	0	0	0	0	0	0	0	0	0	0	0	0
0.052	0	0	0	0	0	0	0	0	0	0	0	0	0	0	0	0	0	0
0.0525	0	0	0	0	0	0	0	0	0	0	0	0	0	0	0	0	0	0
0.053	0	0	0	0	0	0	0	0	0	0	0	0	0	0	0	0	0	0
0.0535	0	0	0	0	0	0	0	0	0	0	0	0	0	0	0	0	0	0
0.054	0	0	0	0	0	0	0	0	0	0	0	0	0	0	0	0	0	0
0.0545	0	0	0	0	0	0	0	0	0	0	0	0	0	0	0	0	0	0
0.055	0	0	0	0	0	0	0	0	0	0	0	0	0	0	0	0	0	0
0.0555	0	0	0	0	0	0	0	0	0	0	0	0	0	0	0	0	0	0
0.056	0	0	0	0	0	0	0	0	0	0	0	0	0	0	0	0	0	0
0.0565	0	0	0	0	0	0	0	0	0	0	0	0	0	0	0	0	0	0
0.057	0	0	0	0	0	0	0	0	0	0	0	0	0	0	0	0	0	0
0.0575	0	0	0	0	0	0	0	0	0	0	0	0	0	0	0	0	0	0
0.058	0	0	0	0	0	0	0	0	0	0	0	0	0	0	0	0	0	0
0.0585	0	0	0	0	0	0	0	0	0	0	0	0	0	0	0	0	0	0
0.059	0	0	0	0	0	0	0	0	0	0	0	0	0	0	0	0	0	0
0.0595	0	0	0	0	0	0	0	0	0	0	0	0	0	0	0	0	0	0
0.06	0	0	0	0	0	0	0	0	0	0	0	0	0	0	0	0	0	0
0.0605	0	0	0	0	0	0	0	0	0	0	0	0	0	0	0	0	0	0
0.061	0	0	0	0	0	0	0	0	0	0	0	0	0	0	0	0	0	0
0.0615	0	0	0	0	0	0	0	0	0	0	0	0	0	0	0	0	0	0
0.062	0	0	0	0	0	0	0	0	0	0	0	0	0	0	0	0	0	0
0.0625	0	0	0	0	0	0	0	0	0	0	0	0	0	0	0	0	0	0
0.063	0	0	0	0	0	0	0	0	0	0	0	0	0	0	0	0	0	0
0.0635	0	0	0	0	0	0	0	0	0	0	0	0	0	0	0	0	0	0
0.064	0	0	0	0	0	0	0	0	0	0	0	0	0	0	0	0	0	0
0.0645	0	0	0	0	0	0	0	0	0	0	0	0	0	0	0	0	0	0
0.065	0	0	0	0	0	0	0	0	0	0	0	0	0	0	0	0	0	0
0.0655	0	0	0	0	0	0	0	0	0	0	0	0	0	0	0	0	0	0
0.066	0	0	0	0	0	0	0	0	0	0	0	0	0	0	0	0	0	0
0.0665	0	0	0	0	0	0	0	0	0	0	0	0	0	0	0	0	0	0
0.067	0	0	0	0	0	0	0	0	0	0	0	0	0	0	0	0	0	0
0.0675	0	0	0	0	0	0	0	0	0	0	0	0	0	0	0	0	0	0
0.068	0	0	0	0	0	0	0	0	0	0	0	0	0	0	0	0	0	0
0.06850000000000001	0	0	0	0	0	0	0	0	0	0	0	0	0	0	0	0	0	0
0.06900000000000001	0	0	0	0	0	0	0	0	0	0	0	0	0	0	0	0	0	0
0.06950000000000001	0	0	0	0	0	0	0	0	0	0	0	0	0	0	0	0	0	0
0.07000000000000001	0	0	0	0	0	0	0	0	0	0	0	0	0	0	0	0	0	0
0.07049999999999999	0	0	0	0	0	0	0	0	0	0	0	0	0	0	0	0	0	0
0.07099999999999999	0	0	0	0	0	0	0	0	0	0	0	0	0	0	0	0	0	0
0.07149999999999999	0	0	0	0	0	0	0	0	0	0	0	0	0	0	0	0	0	0
0.07199999999999999	0	0	0	0	0	0	0	0	0	0	0	0	0	0	0	0	0	0
0.0725	0	0	0	0	0	0	0	0	0	0	0	0	0	0	0	0	0	0
0.073	0	0	0	0	0	0	0	0	0	0	0	0	0	0	0	0	0	0
0.0735	0	0	0	0	0	0	0	0	0	0	0	0	0	0	0	0	0	0
0.074	0	0	0	0	0	0	0	0	0	0	0	0	0	0	0	0	0	0
0.0745	0	0	0	0	0	0	0	0	0	0	0	0	0	0	0	0	0	0
0.075	0	0	0	0	0	0	0	0	0	0	0	0	0	0	0	0	0	0
0.0755	0	0	0	0	0	0	0	0	0	0	0	0	0	0	0	0	0	0
0.076	0	0	0	0	0	0	0	0	0	0	0	0	0	0	0	0	0	0
0.0765	0	0	0	0	0	0	0	0	0	0	0	0	0	0	0	0	0	0
0.077	0	0	0	0	0	0	0	0	0	0	0	0	0	0	0	0	0	0
0.0775	0	0	0	0	0	0	0	0	0	0	0	0	0	0	0	0	0	0
0.078	0	0	0	0	0	0	0	0	0	0	0	0	0	0	0	0	0	0
0.0785	0	0	0	0	0	0	0	0	0	0	0	0	0	0	0	0	0	0
0.079	0	0	0	0	0	0	0	0	0	0	0	0	0	0	0	0	0	0
0.0795	0	0	0	0	0	0	0	0	0	0	0	0	0	0	0	0	0	0
0.08	0	0	0	0	0	0	0	0	0	0	0	0	0	0	0	0	0	0
0.0805	0	0	0	0	0	0	0	0	0	0	0	0	0	0	0	0	0	0
0.081	0	0	0	0	0	0	0	0	0	0	0	0	0	0	0	0	0	0
0.0815	0	0	0	0	0	0	0	0	0	0	0	0	0	0	0	0	0	0
0.082	0	0	0	0	0	0	0	0	0	0	0	0	0	0	0	0	0	0
0.0825	0	0	0	0	0	0	0	0	0	0	0	0	0	0	0	0	0	0
0.083	0	0	0	0	0	0	0	0	0	0	0	0	0	0	0	0	0	0
0.0835	0	0	0	0	0	0	0	0	0	0	0	0	0	0	0	0	0	0
0.08400000000000001	0	0	0	0	0	0	0	0	0	0	0	0	0	0	0	0	0	0
0.08450000000000001	0	0	0	0	0	0	0	0	0	0	0	0	0	0	0	0	0	0
0.08500000000000001	0	0	0	0	0	0	0	0	0	0	0	0	0	0	0	0	0	0
0.08550000000000001	0	0	0	0	0	0	0	0	0	0	0	0	0	0	0	0	0	0
0.08599999999999999	0	0	0	0	0	0	0	0	0	0	0	0	0	0	0	0	0	0
0.08649999999999999	0	0	0	0	0	0	0	0	0	0	0	0	0	0	0	0	0	0
0.08699999999999999	0	0	0	0	0	0	0	0	0	0	0	0	0	0	0	0	0	0
0.08749999999999999	0	0	0	0	0	0	0	0	0	0	0	0	0	0	0	0	0	0
0.08799999999999999	0	0	0	0	0	0	0	0	0	0	0	0	0	0	0	0	0	0
0.0885	0	0	0	0	0	0	0	0	0	0	0	0	0	0	0	0	0	0
0.089	0	0	0	0	0	0	0	0	0	0	0	0	0	0	0	0	0	0
0.0895	0	0	0	0	0	0	0	0	0	0	0	0	0	0	0	0	0	0
0.09	0	0	0	0	0	0	0	0	0	0	0	0	0	0	0	0	0	0
0.0905	0	0	0	0	0	0	0	0	0	0	0	0	0	0	0	0	0	0
0.091	0	0	0	0	0	0	0	0	0	0	0	0	0	0	0	0	0	0
0.0915	0	0	0	0	0	0	0	0	0	0	0	0	0	0	0	0	0	0
0.092	0	0	0	0	0	0	0	0	0	0	0	0	0	0	0	0	0	0
0.0925	0	0	0	0	0	0	0	0	0	0	0	0	0	0	0	0	0	0
0.093	0	0	0	0	0	0	0	0	0	0	0	0	0	0	0	0	0	0
0.0935	0	0	0	0	0	0	0	0	0	0	0	0	0	0	0	0	0	0
0.094	0	0	0	0	0	0	0	0	0	0	0	0	0	0	0	0	0	0
0.0945	0	0	0	0	0	0	0	0	0	0	0	0	0	0	0	0	0	0
0.095	0	0	0	0	0	0	0	0	0	0	0	0	0	0	0	0	0	0
0.0955	0	0	0	0	0	0	0	0	0	0	0	0	0	0	0	0	0	0
0.096	0	0	0	0	0	0	0	0	0	0	0	0	0	0	0	0	0	0
0.0965	0	0	0	0	0	0	0	0	0	0	0	0	0	0	0	0	0	0
0.097	0	0	0	0	0	0	0	0	0	0	0	0	0	0	0	0	0	0
0.0975	0	0	0	0	0	0	0	0	0	0	0	0	0	0	0	0	0	0
0.098	0	0	0	0	0	0	0	0	0	0	0	0	0	0	0	0	0	0
0.0985	0	0	0	0	0	0	0	0	0	0	0	0	0	0	0	0	0	0
0.099	0	0	0	0	0	0	0	0	0	0	0	0	0	0	0	0	0	0
0.09950000000000001	0	0	0	0	0	0	0	0	0	0	0	0	0	0	0	0	0	0
0.1	0	0	0	0	0	0	0	0	0	0	0	0	0	0	0	0	0	0
0.1005	0	0	0	0	0	0	0	0	0	0	0	0	0	0	0	0	0	0
0.101	0	0	0	0	0	0	0	0	0	0	0	0	0	0	0	0	0	0
0.1015	-13.343522	51.608749	-14.014444	1.118316	0	-0.305453	0	0	0	0	0	0	-0	6.076975	-0	0	0	0
0.102	-14.168268	55.277779	-14.476223	1.118201	0	-0.306091	0	0	0	0	0	0	-0	6.194055	-0	0	0	0
0.1025	-15.033459	59.170933	-14.942729	1.118003	0	-0.306693	0	0	0	0	0	0	-0	6.308541	-0	0	0	0
0.103	-15.93995	63.297523	-15.413321	1.117731	0	-0.307262	0	0	0	0	0	0	-0	6.420298	-0	0	0	0
0.1035	-16.888504	67.66688499999999	-15.887307	1.117389	0	-0.307803	0	0	0	0	0	0	-0	6.529187	-0	0	0	0
0.104	-17.87978	72.28833	-16.363943	1.116984	0	-0.308318	0	0	0	0	0	0	-0	6.635072	-0	0	0	0
0.1045	-18.914324	77.171127	-16.842432	1.116522	0	-0.308809	0	0	0	0	0	0	-0	6.737817	-0	0	0	0
0.105	-19.992558	82.324455	-17.321926	1.116008	0	-0.30928	0	0	0	0	0	0	-0	6.83729	-0	0	0	0
0.1055	-21.114773	87.75739299999999	-17.801523	1.115445	0	-0.309732	0	0	0	0	0	0	-0	6.933357	-0	0	0	0
0.106	-22.281116	93.478836	-18.280266	1.114838	0	-0.310167	0	0	0	0	0	0	-0	7.025887	-0	0	0	0
